<svg id="icons" enable-background="new 0 0 64 64" height="512" viewBox="0 0 64 64" width="512" xmlns="http://www.w3.org/2000/svg"><path d="m51.5 19.004h-3c-.553 0-1 .447-1 1s.447 1 1 1v5.001c-.553 0-1 .447-1 1s.447 1 1 1h3c.553 0 1-.447 1-1v-7.001c0-.553-.447-1-1-1z" fill="#ccd1d9"/><path d="m15.5 53.01h30c-1.66 0-3 1.34-3 3v3.99.01c0 1.65-1.34 2.99-3 2.99h-18c-1.66 0-3-1.34-3-2.99v-.01-4c0-1.65-1.34-2.99-3-2.99z" fill="#5d9cec"/><path d="m45.5 11h-30c1.66 0 3-1.34 3-3v-3.99-.01c0-1.66 1.34-3 3-3h18c1.66 0 3 1.34 3 3v.01 4c0 1.65 1.34 2.99 3 2.99z" fill="#5d9cec"/><path d="m45.5 14h-30c-.539 0-1 .46-1 1v34.01c0 .54.461 1 1 1h30c.541 0 1-.46 1-1v-34.01c0-.54-.459-1-1-1zm0 39.01h-30c-2.199 0-4-1.8-4-4v-34.01c0-2.2 1.801-4 4-4h30c2.201 0 4 1.8 4 4v5.01 7 22c0 2.2-1.799 4-4 4z" fill="#e6e9ed"/><path d="m46.5 15v34.01c0 .54-.459 1-1 1h-30c-.539 0-1-.46-1-1v-34.01c0-.54.461-1 1-1h30c.541 0 1 .46 1 1zm-4 17c0-6.62-5.379-12-12-12-6.619 0-12 5.38-12 12 0 6.63 5.381 12 12 12 6.621 0 12-5.37 12-12z" fill="#656d78"/><path d="m30.5 20c6.621 0 12 5.38 12 12 0 6.63-5.379 12-12 12-6.619 0-12-5.37-12-12 0-6.62 5.381-12 12-12z" fill="#5d9cec"/><g fill="#4a89dc"><path d="m22.498 33c-.256 0-.512-.098-.707-.293-.391-.391-.391-1.023 0-1.414l3-3.001c.391-.391 1.023-.391 1.414 0s.391 1.023 0 1.414l-3 3.001c-.195.195-.451.293-.707.293z"/><path d="m25.498 36c-.256 0-.512-.098-.707-.293l-3-3c-.391-.391-.391-1.023 0-1.414s1.023-.391 1.414 0l3 3c.391.391.391 1.023 0 1.414-.195.195-.451.293-.707.293z"/><path d="m38.506 33c-.256 0-.512-.098-.707-.293l-3-3.001c-.391-.391-.391-1.023 0-1.414s1.023-.391 1.414 0l3 3.001c.391.391.391 1.023 0 1.414-.195.195-.451.293-.707.293z"/><path d="m35.506 36c-.256 0-.512-.098-.707-.293-.391-.391-.391-1.023 0-1.414l3-3c.391-.391 1.023-.391 1.414 0s.391 1.023 0 1.414l-3 3c-.195.195-.451.293-.707.293z"/><path d="m28.5 38.002c-.123 0-.25-.022-.371-.071-.512-.205-.762-.787-.557-1.3l4-10.004c.205-.515.791-.764 1.301-.558.512.205.762.787.557 1.3l-4 10.004c-.157.392-.534.629-.93.629z"/></g></svg>